<?xml version="1.0" encoding="UTF-8"?>
<svg id="Layer_1" xmlns="http://www.w3.org/2000/svg" version="1.1" viewBox="0 0 254.5 252.4">
  <!-- Generator: Adobe Illustrator 29.1.0, SVG Export Plug-In . SVG Version: 2.1.0 Build 142)  -->
  <defs>
    <style>
      .st0 {
        fill: #fff;
      }
    </style>
  </defs>
  <g>
    <path class="st0" d="M82,26.1h91c0,0,56.9,57.6,56.9,57.6v86.2c0,0-57,57.4-57,57.4h-91.1c0,.1-56.6-56.9-56.6-56.9l-.4-86.5,57.3-57.8ZM183.6,54.3c-5.3-5.3-10.4-10.8-16-15.7l-81.6.5-16.2,16.6,128.5,129.1,19.2-20.1.2-76c-11.4-11.4-22.6-23.1-34-34.4ZM60.2,65.5l-23,23.3.3,76.7,49.5,49.7h80.4c0-.1,20.8-21.6,20.8-21.6L60.2,65.5Z"/>
    <path class="st0" d="M93.5,124.8c-1.4-.3-12.4-8.4-11.8-11,3.5-9.2,10.4,2.4,14,3.3s7.8-.3,10.6,0l39.7,39.8c-10.2,15.7-32.1,12.9-39.9-3.4-.9,1.1-4,3.6-4.2,4.9-.7,4.4,3.8,16,3.3,21.3-.4,4.7-6.3,5.4-7.9.6s-3.3-22.2-3-24.5c.6-4,7.7-8,8.5-10.3s-.6-4.5-.2-6.5c-2.1,1.5-7.8,2.7-9.4,4.6-2.5,3-5.5,17.4-8,19.5s-6.9.6-6.8-2.8,8.1-20.4,9.1-21.7c3.1-4,13.9-6.5,15.1-8s1.1-4.8.5-5.6c-2.8-.4-7.2.6-9.8,0Z"/>
    <path class="st0" d="M151.9,163.2l6.9,7.1c-1.2,3.5.1,12.8-4.9,13.2-8.7.7-1.2-16-2-20.3Z"/>
    <path class="st0" d="M151.4,124.8c-2.4,7.1,8.8,8.4,13.4,11.6s6.2,12.8,8.7,18.1l-57.7-58.4c4.7-17,22.5-13,24.5,3.3s-.6,5.4.2,5.6l6.7-7.1c0-5-6.2-21.9-3.5-25.5s5.8-1.2,7,1.7,4.9,21.6,4.8,24.1c0,5.7-7.5,8.4-10.1,13.1l2.5,5.8c.5.3,10.1.2,10.9,0,3.3-.9,7.8-9.2,12.4-6.1s-9.3,13.8-10.5,13.8h-9.4Z"/>
    <path class="st0" d="M109.2,89.7l-6.5-6.7c.9-3.3-.1-11.9,4.9-12.1,8.1-.4,1.4,14.8,1.6,18.8Z"/>
  </g>
</svg>
